<svg width="140" height="135" viewBox="0 0 140 135" fill="none" xmlns="http://www.w3.org/2000/svg">
<g clip-path="url(#clip0)">
<path d="M5.62087 117.401C4.01733 117.401 2.7371 116.819 1.78015 115.655C0.823201 114.49 0.344727 112.963 0.344727 111.074C0.344727 109.004 0.823201 107.05 1.78015 105.212C2.7371 103.349 4.0044 101.861 5.58208 100.748C7.18561 99.6092 8.87964 99.0398 10.6642 99.0398C11.2332 99.0398 11.6083 99.1562 11.7893 99.3892C11.9962 99.5962 12.1643 99.9844 12.2936 100.554C12.8368 100.45 13.4058 100.398 14.0006 100.398C15.2679 100.398 15.9016 100.851 15.9016 101.757C15.9016 102.301 15.7076 103.595 15.3196 105.639C14.7248 108.615 14.4274 110.686 14.4274 111.85C14.4274 112.238 14.5179 112.549 14.6989 112.782C14.9059 113.015 15.1645 113.131 15.4748 113.131C15.9663 113.131 16.5611 112.821 17.2594 112.2C17.9577 111.553 18.9018 110.517 20.0915 109.094C20.4018 108.732 20.751 108.551 21.1389 108.551C21.4752 108.551 21.7338 108.706 21.9148 109.016C22.1218 109.327 22.2252 109.754 22.2252 110.297C22.2252 111.333 21.9795 112.135 21.4881 112.704C20.4277 114.024 19.3026 115.137 18.1129 116.043C16.9232 116.949 15.7723 117.401 14.6601 117.401C13.8066 117.401 13.0178 117.117 12.2936 116.547C11.5953 115.952 11.0652 115.15 10.703 114.141C9.35817 116.315 7.66408 117.401 5.62087 117.401ZM7.0175 113.481C7.5865 113.481 8.12963 113.144 8.64687 112.471C9.1642 111.799 9.53916 110.906 9.77193 109.793L11.2074 102.65C10.1211 102.676 9.11241 103.09 8.18136 103.892C7.27614 104.669 6.55196 105.704 6.00882 106.998C5.46569 108.292 5.19413 109.663 5.19413 111.113C5.19413 111.915 5.34931 112.51 5.65967 112.898C5.99589 113.287 6.4485 113.481 7.0175 113.481ZM38.9354 108.628C39.2715 108.628 39.5302 108.796 39.7113 109.133C39.9182 109.443 40.0215 109.845 40.0215 110.336C40.0215 110.931 39.9311 111.397 39.7501 111.734C39.569 112.07 39.2845 112.368 38.8966 112.627C36.6723 114.128 35.0429 115.24 34.0084 115.965L31.5255 117.634C30.5426 122.991 29.2495 127.197 27.646 130.251C26.0683 133.33 24.0509 134.87 21.5939 134.87C20.2749 134.87 19.2015 134.456 18.3739 133.628C17.5462 132.826 17.1324 131.765 17.1324 130.445C17.1324 128.607 17.8566 126.628 19.305 124.505C20.7533 122.409 23.469 119.821 27.4519 116.742L27.6848 115.228C27.245 115.926 26.6631 116.47 25.939 116.858C25.2407 117.22 24.5424 117.401 23.844 117.401C22.2405 117.401 20.9602 116.819 20.0033 115.655C19.0463 114.49 18.5679 112.963 18.5679 111.074C18.5679 109.004 19.0463 107.05 20.0033 105.212C20.9602 103.349 22.2275 101.861 23.8052 100.748C25.4088 99.6092 27.1028 99.0398 28.8874 99.0398C29.4564 99.0398 29.8314 99.1562 30.0125 99.3892C30.2194 99.5962 30.3874 99.9844 30.5168 100.554C31.0082 100.45 31.5772 100.398 32.2238 100.398C32.8703 100.398 33.323 100.502 33.5816 100.709C33.8661 100.89 34.0084 101.265 34.0084 101.835C34.0084 102.145 33.9954 102.391 33.9696 102.572C33.8661 103.375 33.5428 105.406 32.9997 108.667C32.8962 109.288 32.7798 109.974 32.6505 110.724C32.5471 111.449 32.4307 112.226 32.3014 113.054C34.2928 111.501 36.2067 110.129 38.0431 108.939C38.3792 108.732 38.6767 108.628 38.9354 108.628ZM25.2407 113.481C25.8355 113.481 26.4045 113.118 26.9477 112.394C27.4908 111.669 27.8787 110.634 28.1115 109.288L29.353 102.65C28.2925 102.676 27.3097 103.09 26.4045 103.892C25.4992 104.669 24.7751 105.704 24.232 106.998C23.6889 108.292 23.4173 109.663 23.4173 111.113C23.4173 111.915 23.5725 112.51 23.8828 112.898C24.219 113.287 24.6716 113.481 25.2407 113.481ZM22.0207 131.105C22.6672 131.105 23.3914 130.328 24.1932 128.776C25.0208 127.223 25.8096 124.751 26.5597 121.361C24.5682 123.069 23.1327 124.609 22.2534 125.981C21.3741 127.352 20.9344 128.556 20.9344 129.591C20.9344 130.031 21.012 130.393 21.1672 130.678C21.3482 130.962 21.6327 131.105 22.0207 131.105ZM54.939 108.551C55.2751 108.551 55.5338 108.706 55.7149 109.016C55.9218 109.327 56.0252 109.754 56.0252 110.297C56.0252 111.333 55.7795 112.135 55.2881 112.704C54.3312 113.869 52.9733 114.943 51.2146 115.926C49.4818 116.91 47.6196 117.401 45.6281 117.401C42.9125 117.401 40.8045 116.664 39.3045 115.189C37.8044 113.714 37.0544 111.695 37.0544 109.133C37.0544 107.347 37.4294 105.691 38.1795 104.164C38.9295 102.611 39.964 101.382 41.2831 100.476C42.6279 99.5703 44.1409 99.1174 45.8221 99.1174C47.3221 99.1174 48.5248 99.5703 49.4301 100.476C50.3352 101.356 50.7879 102.559 50.7879 104.086C50.7879 105.872 50.1413 107.412 48.8481 108.706C47.5808 109.974 45.4212 110.983 42.3693 111.734C43.0159 112.924 44.2444 113.52 46.0549 113.52C47.2187 113.52 48.5378 113.118 50.012 112.316C51.512 111.488 52.8052 110.414 53.8915 109.094C54.2019 108.732 54.551 108.551 54.939 108.551ZM45.1626 102.922C44.2056 102.922 43.3909 103.478 42.7185 104.591C42.0719 105.704 41.7486 107.05 41.7486 108.628V108.706C43.2745 108.344 44.4772 107.8 45.3566 107.075C46.2359 106.351 46.6756 105.51 46.6756 104.552C46.6756 104.06 46.5333 103.672 46.2489 103.388C45.9902 103.077 45.6281 102.922 45.1626 102.922ZM55.6209 117.401C54.6381 117.401 53.9397 116.884 53.526 115.849C53.138 114.813 52.9441 113.157 52.9441 110.88C52.9441 107.515 53.4225 104.319 54.3795 101.291C54.6122 100.541 54.9872 99.9974 55.5045 99.6609C56.0477 99.2986 56.7977 99.1174 57.7547 99.1174C58.2719 99.1174 58.634 99.1822 58.8409 99.3115C59.0478 99.4409 59.1513 99.6868 59.1513 100.049C59.1513 100.463 58.9573 101.395 58.5694 102.844C58.3107 103.879 58.1038 104.785 57.9486 105.561C57.7935 106.338 57.6641 107.295 57.5607 108.434C58.4142 106.208 59.3711 104.397 60.4315 102.999C61.4919 101.602 62.5265 100.605 63.5351 100.01C64.5696 99.4151 65.5137 99.1174 66.3672 99.1174C68.0483 99.1174 68.8889 99.9585 68.8889 101.641C68.8889 102.65 68.6043 104.475 68.0354 107.114C67.5439 109.366 67.2983 110.854 67.2983 111.579C67.2983 112.614 67.6732 113.131 68.4233 113.131C68.9406 113.131 69.5484 112.821 70.2467 112.2C70.9708 111.553 71.9278 110.517 73.1176 109.094C73.4279 108.732 73.7771 108.551 74.165 108.551C74.5012 108.551 74.7598 108.706 74.9409 109.016C75.1478 109.327 75.2513 109.754 75.2513 110.297C75.2513 111.333 75.0055 112.135 74.5142 112.704C73.402 114.076 72.1994 115.202 70.9062 116.082C69.6389 116.962 68.1906 117.401 66.5612 117.401C65.2421 117.401 64.2464 117.026 63.5739 116.276C62.9014 115.499 62.5653 114.386 62.5653 112.937C62.5653 112.213 62.7462 110.919 63.1084 109.055C63.4446 107.425 63.6127 106.299 63.6127 105.678C63.6127 105.264 63.4705 105.057 63.186 105.057C62.8497 105.057 62.3713 105.497 61.7506 106.377C61.1556 107.231 60.5349 108.369 59.8884 109.793C59.2677 111.216 58.7633 112.717 58.3754 114.296C58.0908 115.512 57.7547 116.34 57.3667 116.78C57.0046 117.194 56.4226 117.401 55.6209 117.401ZM86.234 108.551C86.5182 110.673 86.9323 112.769 87.4755 114.839C87.5792 115.176 87.6307 115.525 87.6307 115.887C87.6307 117.052 86.9197 117.634 85.4969 117.634C84.6949 117.634 84.0743 117.414 83.6347 116.974C83.2208 116.535 82.8329 115.706 82.4708 114.49L82.432 114.335C81.4492 115.551 80.5569 116.366 79.7552 116.78C78.9793 117.194 78.074 117.401 77.0395 117.401C75.4618 117.401 74.1557 116.819 73.1212 115.655C72.1125 114.464 71.6082 112.924 71.6082 111.035C71.6082 108.965 72.0478 107.05 72.9272 105.29C73.8065 103.53 75.0092 102.094 76.5352 100.981C78.0611 99.8421 79.7681 99.1562 81.6561 98.9233C82.1475 94.0321 83.0786 89.7748 84.4495 86.1517C85.8461 82.5285 87.6956 80.7169 89.9972 80.7169C91.1096 80.7169 92.0272 81.2216 92.7516 82.2309C93.5014 83.2402 93.8767 84.7671 93.8767 86.8116C93.8767 89.6583 93.1784 92.9839 91.7817 96.7882C90.3851 100.593 88.5356 104.513 86.234 108.551ZM89.5704 84.5212C88.8207 84.5212 88.1089 86.4363 87.4367 90.2665C86.7898 94.0968 86.3504 98.2634 86.1176 102.766C88.9885 96.5553 90.4239 91.5088 90.4239 87.6268C90.4239 86.6434 90.3337 85.8799 90.1523 85.3365C89.9972 84.793 89.8032 84.5212 89.5704 84.5212ZM78.3973 113.481C78.9146 113.481 79.406 113.287 79.8715 112.898C80.3629 112.51 80.9836 111.76 81.7337 110.647C81.475 108.758 81.3458 106.804 81.3458 104.785C81.3458 103.983 81.3587 103.362 81.3846 102.922C79.962 103.336 78.7853 104.28 77.8542 105.756C76.9231 107.231 76.4576 108.861 76.4576 110.647C76.4576 112.536 77.1041 113.481 78.3973 113.481Z" fill="black"/>
<path d="M96.0164 117.401C94.4131 117.401 93.1329 116.819 92.1757 115.655C91.2193 114.49 90.7402 112.963 90.7402 111.074C90.7402 109.004 91.2193 107.05 92.1757 105.212C93.1329 103.349 94.4005 101.861 95.9776 100.748C97.5817 99.6092 99.2752 99.0398 101.06 99.0398C101.629 99.0398 102.004 99.1563 102.185 99.3892C102.392 99.5962 102.56 99.9844 102.689 100.554C103.232 100.45 103.802 100.398 104.396 100.398C105.664 100.398 106.297 100.851 106.297 101.757C106.297 102.301 106.103 103.595 105.715 105.639C105.121 108.615 104.823 110.686 104.823 111.85C104.823 112.238 104.914 112.549 105.094 112.782C105.302 113.015 105.56 113.131 105.87 113.131C106.362 113.131 106.957 112.821 107.655 112.2C108.353 111.553 109.298 110.517 110.487 109.094C110.797 108.732 111.147 108.551 111.534 108.551C111.871 108.551 112.13 108.706 112.31 109.016C112.518 109.327 112.621 109.754 112.621 110.297C112.621 111.333 112.375 112.135 111.884 112.704C110.823 114.024 109.698 115.137 108.508 116.043C107.319 116.949 106.168 117.401 105.056 117.401C104.202 117.401 103.414 117.117 102.689 116.547C101.991 115.952 101.461 115.15 101.099 114.141C99.7542 116.315 98.0599 117.401 96.0164 117.401ZM97.413 113.481C97.9823 113.481 98.5254 113.144 99.0424 112.471C99.5602 111.799 99.9347 110.906 100.167 109.793L101.603 102.65C100.517 102.676 99.5079 103.09 98.5769 103.892C97.6719 104.669 96.9475 105.704 96.4043 106.998C95.8612 108.292 95.5896 109.663 95.5896 111.113C95.5896 111.915 95.7448 112.51 96.0552 112.898C96.3917 113.287 96.8446 113.481 97.413 113.481ZM123.357 109.715C123.693 109.715 123.951 109.87 124.133 110.181C124.339 110.492 124.443 110.919 124.443 111.462C124.443 112.394 124.223 113.196 123.784 113.869C123.059 114.982 122.103 115.849 120.913 116.47C119.749 117.091 118.352 117.401 116.723 117.401C114.24 117.401 112.313 116.664 110.942 115.189C109.572 113.688 108.886 111.669 108.886 109.133C108.886 107.347 109.262 105.691 110.011 104.164C110.761 102.611 111.796 101.382 113.115 100.476C114.46 99.5704 115.973 99.1174 117.654 99.1174C119.154 99.1174 120.357 99.5704 121.262 100.476C122.167 101.356 122.62 102.559 122.62 104.086C122.62 105.872 121.973 107.412 120.68 108.706C119.412 109.974 117.24 110.983 114.162 111.734C114.783 112.924 115.831 113.52 117.305 113.52C118.365 113.52 119.232 113.274 119.904 112.782C120.602 112.29 121.404 111.462 122.309 110.297C122.62 109.909 122.969 109.715 123.357 109.715ZM116.994 102.922C116.037 102.922 115.223 103.478 114.55 104.591C113.903 105.704 113.58 107.05 113.58 108.628V108.706C115.106 108.344 116.309 107.8 117.188 107.075C118.068 106.351 118.507 105.51 118.507 104.552C118.507 104.06 118.365 103.672 118.081 103.388C117.822 103.077 117.46 102.922 116.994 102.922ZM122.271 96.5942C121.676 96.5942 121.197 96.4518 120.835 96.1671C120.473 95.8566 120.241 95.3002 120.137 94.4979L119.245 87.6268L115.869 94.4979C115.481 95.3002 115.067 95.8437 114.628 96.1283C114.189 96.413 113.697 96.5553 113.154 96.5553C112.611 96.5553 112.171 96.4389 111.835 96.206C111.524 95.9471 111.369 95.5849 111.369 95.119C111.369 94.6791 111.512 94.2133 111.796 93.7215L116.141 86.2293C116.607 85.4271 117.123 84.8318 117.693 84.4436C118.287 84.0295 118.986 83.8225 119.788 83.8225C120.564 83.8225 121.172 84.0554 121.611 84.5213C122.05 84.9871 122.387 85.7247 122.62 86.734L124.327 93.7215C124.404 94.0321 124.443 94.3167 124.443 94.5755C124.443 95.2226 124.223 95.7272 123.784 96.0895C123.37 96.426 122.865 96.5942 122.271 96.5942ZM131.506 108.124C130.989 108.124 130.562 108.007 130.225 107.774C129.89 107.541 129.721 107.179 129.721 106.687L129.76 106.377C130.2 103.478 130.795 100.178 131.544 96.4777C132.295 92.7769 132.993 89.5807 133.639 86.8893C134.053 85.233 135.178 84.4048 137.014 84.4048C138.67 84.4048 139.497 84.9353 139.497 85.9964C139.497 86.2293 139.459 86.4881 139.381 86.7728C138.709 89.5161 137.816 92.8416 136.704 96.7494C135.593 100.631 134.532 104.009 133.523 106.881C133.239 107.709 132.566 108.124 131.506 108.124ZM130.031 117.401C128.894 117.401 128.027 117.091 127.432 116.47C126.864 115.849 126.579 115.033 126.579 114.024C126.579 112.86 126.902 111.928 127.548 111.229C128.221 110.53 129.153 110.181 130.342 110.181C131.48 110.181 132.334 110.466 132.902 111.035C133.498 111.579 133.794 112.394 133.794 113.481C133.794 114.671 133.459 115.629 132.786 116.353C132.114 117.052 131.195 117.401 130.031 117.401Z" fill="#FF7675"/>
</g>
<g clip-path="url(#clip1)">
<path d="M99.4906 3.90442C99.4906 3.90442 100.898 4.84148 102.227 6.87178C103.556 8.90208 99.0215 7.49649 99.0215 7.49649L99.4906 3.90442Z" fill="#636E72"/>
<path d="M41.4845 67.3175C41.4845 67.3175 40.0771 66.3805 38.7479 64.3502C37.4187 62.3199 41.9536 63.7255 41.9536 63.7255L41.4845 67.3175Z" fill="#636E72"/>
<path d="M99.647 5.46619H43.3514C41.6241 5.46619 40.2239 6.86464 40.2239 8.58972V64.8134C40.2239 66.5385 41.6241 67.9369 43.3514 67.9369H99.647C101.374 67.9369 102.774 66.5385 102.774 64.8134V8.58972C102.774 6.86464 101.374 5.46619 99.647 5.46619Z" fill="#636E72"/>
<path d="M97.4578 3.12354H41.1622C39.4349 3.12354 38.0347 4.52199 38.0347 6.24707V62.4707C38.0347 64.1958 39.4349 65.5943 41.1622 65.5943H97.4578C99.185 65.5943 100.585 64.1958 100.585 62.4707V6.24707C100.585 4.52199 99.185 3.12354 97.4578 3.12354Z" fill="#F2F2F2"/>
<path d="M38.0347 6.24707C38.0347 4.52199 39.4349 3.12354 41.1622 3.12354H97.4578C99.1851 3.12354 100.585 4.52199 100.585 6.24707V15.6177H38.0347V6.24707Z" fill="#FF7675"/>
<path d="M100.585 15.6177H38.0347V18.7412H100.585V15.6177Z" fill="#D63031"/>
<path d="M78.6926 7.02795H59.9274C58.632 7.02795 57.5818 8.0768 57.5818 9.37061C57.5818 10.6644 58.632 11.7133 59.9274 11.7133H78.6926C79.9881 11.7133 81.0383 10.6644 81.0383 9.37061C81.0383 8.0768 79.9881 7.02795 78.6926 7.02795Z" fill="#FAB1A0"/>
<path d="M52.1085 37.4824H44.2897C43.8579 37.4824 43.5078 37.832 43.5078 38.2633V46.0721C43.5078 46.5034 43.8579 46.853 44.2897 46.853H52.1085C52.5403 46.853 52.8904 46.5034 52.8904 46.0721V38.2633C52.8904 37.832 52.5403 37.4824 52.1085 37.4824Z" fill="#FF7675"/>
<path d="M52.1085 50.7574H44.2897C43.8579 50.7574 43.5078 51.1071 43.5078 51.5383V59.3472C43.5078 59.7784 43.8579 60.1281 44.2897 60.1281H52.1085C52.5403 60.1281 52.8904 59.7784 52.8904 59.3472V51.5383C52.8904 51.1071 52.5403 50.7574 52.1085 50.7574Z" fill="#C4C4C4"/>
<path d="M66.1825 24.2074H58.3637C57.9318 24.2074 57.5818 24.557 57.5818 24.9883V32.7971C57.5818 33.2284 57.9318 33.578 58.3637 33.578H66.1825C66.6143 33.578 66.9644 33.2284 66.9644 32.7971V24.9883C66.9644 24.557 66.6143 24.2074 66.1825 24.2074Z" fill="#C4C4C4"/>
<path d="M66.1825 37.4824H58.3637C57.9318 37.4824 57.5818 37.832 57.5818 38.2633V46.0721C57.5818 46.5034 57.9318 46.853 58.3637 46.853H66.1825C66.6143 46.853 66.9644 46.5034 66.9644 46.0721V38.2633C66.9644 37.832 66.6143 37.4824 66.1825 37.4824Z" fill="#C4C4C4"/>
<path d="M66.1825 50.7574H58.3637C57.9318 50.7574 57.5818 51.1071 57.5818 51.5383V59.3472C57.5818 59.7784 57.9318 60.1281 58.3637 60.1281H66.1825C66.6143 60.1281 66.9644 59.7784 66.9644 59.3472V51.5383C66.9644 51.1071 66.6143 50.7574 66.1825 50.7574Z" fill="#C4C4C4"/>
<path d="M80.2565 24.2074H72.4376C72.0058 24.2074 71.6558 24.557 71.6558 24.9883V32.7971C71.6558 33.2284 72.0058 33.578 72.4376 33.578H80.2565C80.6883 33.578 81.0383 33.2284 81.0383 32.7971V24.9883C81.0383 24.557 80.6883 24.2074 80.2565 24.2074Z" fill="#C4C4C4"/>
<path d="M80.2565 37.4824H72.4376C72.0058 37.4824 71.6558 37.832 71.6558 38.2633V46.0721C71.6558 46.5034 72.0058 46.853 72.4376 46.853H80.2565C80.6883 46.853 81.0383 46.5034 81.0383 46.0721V38.2633C81.0383 37.832 80.6883 37.4824 80.2565 37.4824Z" fill="#C4C4C4"/>
<path d="M80.2565 50.7574H72.4376C72.0058 50.7574 71.6558 51.1071 71.6558 51.5383V59.3472C71.6558 59.7784 72.0058 60.1281 72.4376 60.1281H80.2565C80.6883 60.1281 81.0383 59.7784 81.0383 59.3472V51.5383C81.0383 51.1071 80.6883 50.7574 80.2565 50.7574Z" fill="#C4C4C4"/>
<path d="M94.3302 24.2074H86.5114C86.0796 24.2074 85.7295 24.557 85.7295 24.9883V32.7971C85.7295 33.2284 86.0796 33.578 86.5114 33.578H94.3302C94.762 33.578 95.1121 33.2284 95.1121 32.7971V24.9883C95.1121 24.557 94.762 24.2074 94.3302 24.2074Z" fill="#C4C4C4"/>
<path d="M94.3302 37.4824H86.5114C86.0796 37.4824 85.7295 37.832 85.7295 38.2633V46.0721C85.7295 46.5034 86.0796 46.853 86.5114 46.853H94.3302C94.762 46.853 95.1121 46.5034 95.1121 46.0721V38.2633C95.1121 37.832 94.762 37.4824 94.3302 37.4824Z" fill="#C4C4C4"/>
<path d="M54.4542 1.56177C54.4542 0.699228 53.7541 0 52.8904 0C52.0268 0 51.3267 0.699228 51.3267 1.56177V4.68531C51.3267 5.54785 52.0268 6.24707 52.8904 6.24707C53.7541 6.24707 54.4542 5.54785 54.4542 4.68531V1.56177Z" fill="#636E72"/>
<path d="M85.7296 0H85.7295C84.8659 0 84.1658 0.699228 84.1658 1.56177V4.68531C84.1658 5.54785 84.8659 6.24707 85.7295 6.24707H85.7296C86.5932 6.24707 87.2933 5.54785 87.2933 4.68531V1.56177C87.2933 0.699228 86.5932 0 85.7296 0Z" fill="#636E72"/>
</g>
<defs>
<clipPath id="clip0">
<rect width="140" height="54.8538" fill="white" transform="translate(0 80.0756)"/>
</clipPath>
<clipPath id="clip1">
<rect width="64.7399" height="67.9369" fill="white" transform="translate(38.0347)"/>
</clipPath>
</defs>
</svg>
